<!DOCTYPE svg PUBLIC "-//W3C//DTD SVG 1.1//EN" "http://www.w3.org/Graphics/SVG/1.1/DTD/svg11.dtd">
<!-- Uploaded to: SVG Repo, www.svgrepo.com, Transformed by: SVG Repo Mixer Tools -->
<svg height="800px" width="800px" version="1.1" id="Layer_1"
    xmlns="http://www.w3.org/2000/svg"
    xmlns:xlink="http://www.w3.org/1999/xlink" viewBox="-35.84 -35.84 583.68 583.68" xml:space="preserve" fill="#1976D2">

    <g id="SVGRepo_bgCarrier" stroke-width="0"/>

    <g id="SVGRepo_tracerCarrier" stroke-linecap="round" stroke-linejoin="round"/>

    <g id="SVGRepo_iconCarrier">
        <path style="fill:#1976D2;" d="M512,256C512,114.759,397.241,0,256,0S0,114.759,0,256s114.759,256,256,256S512,397.241,512,256"/>
        <g>
            <polygon style="fill:#FFFFFF;" points="247.172,52.966 264.828,52.966 264.828,0 247.172,0 "/>
            <polygon style="fill:#FFFFFF;" points="247.172,512 264.828,512 264.828,459.034 247.172,459.034 "/>
            <polygon style="fill:#FFFFFF;" points="459.034,264.828 512,264.828 512,247.172 459.034,247.172 "/>
            <polygon style="fill:#FFFFFF;" points="0,264.828 52.966,264.828 52.966,247.172 0,247.172 "/>
        </g>
        <path style="fill:#EA7F5F;" d="M299.255,299.255l-87.393-87.393l128-72.386c8.828-5.297,20.303-3.531,28.248,3.531l0,0 c7.062,7.062,8.828,18.538,3.531,28.248L299.255,299.255z"/>
        <path style="fill:#FFFFFF;" d="M212.745,212.745l87.393,87.393l-128.883,72.386c-8.828,5.297-20.303,3.531-27.366-3.531l0,0 c-7.062-7.062-8.828-18.538-3.531-28.248L212.745,212.745z"/>
    </g>

</svg>